<mxfile host="app.diagrams.net" agent="Mozilla/5.0 (Windows NT 10.0; Win64; x64) AppleWebKit/537.36 (KHTML, like Gecko) Chrome/131.0.0.0 Safari/537.36 Edg/131.0.0.0" version="26.0.4">
  <diagram name="PÃ¡gina-1" id="9I1oqppnsWwOomXhBptn">
    <mxGraphModel dx="786" dy="421" grid="1" gridSize="10" guides="1" tooltips="1" connect="1" arrows="1" fold="1" page="1" pageScale="1" pageWidth="827" pageHeight="1169" math="0" shadow="0">
      <root>
        <mxCell id="0" />
        <mxCell id="1" parent="0" />
        <mxCell id="-jkqLeeG_LVBK52YAyfI-5" style="edgeStyle=orthogonalEdgeStyle;rounded=0;orthogonalLoop=1;jettySize=auto;html=1;" edge="1" parent="1" source="Bh1aX2XCKk9uGau-efdp-1" target="tsS--CgVTpiErebc10RA-4">
          <mxGeometry relative="1" as="geometry">
            <Array as="points">
              <mxPoint x="414" y="410" />
              <mxPoint x="500" y="410" />
            </Array>
          </mxGeometry>
        </mxCell>
        <mxCell id="-jkqLeeG_LVBK52YAyfI-6" style="edgeStyle=orthogonalEdgeStyle;rounded=0;orthogonalLoop=1;jettySize=auto;html=1;" edge="1" parent="1" source="Bh1aX2XCKk9uGau-efdp-1" target="tsS--CgVTpiErebc10RA-5">
          <mxGeometry relative="1" as="geometry">
            <Array as="points">
              <mxPoint x="414" y="410" />
              <mxPoint x="660" y="410" />
            </Array>
          </mxGeometry>
        </mxCell>
        <mxCell id="-jkqLeeG_LVBK52YAyfI-7" style="edgeStyle=orthogonalEdgeStyle;rounded=0;orthogonalLoop=1;jettySize=auto;html=1;" edge="1" parent="1" source="Bh1aX2XCKk9uGau-efdp-1" target="tsS--CgVTpiErebc10RA-2">
          <mxGeometry relative="1" as="geometry">
            <Array as="points">
              <mxPoint x="414" y="410" />
              <mxPoint x="340" y="410" />
            </Array>
          </mxGeometry>
        </mxCell>
        <mxCell id="-jkqLeeG_LVBK52YAyfI-8" style="edgeStyle=orthogonalEdgeStyle;rounded=0;orthogonalLoop=1;jettySize=auto;html=1;" edge="1" parent="1" source="Bh1aX2XCKk9uGau-efdp-1" target="tsS--CgVTpiErebc10RA-3">
          <mxGeometry relative="1" as="geometry">
            <Array as="points">
              <mxPoint x="414" y="410" />
              <mxPoint x="180" y="410" />
            </Array>
          </mxGeometry>
        </mxCell>
        <mxCell id="Bh1aX2XCKk9uGau-efdp-1" value="Alumno" style="rounded=0;whiteSpace=wrap;html=1;" parent="1" vertex="1">
          <mxGeometry x="366" y="360" width="96" height="30" as="geometry" />
        </mxCell>
        <mxCell id="-jkqLeeG_LVBK52YAyfI-15" style="edgeStyle=orthogonalEdgeStyle;rounded=0;orthogonalLoop=1;jettySize=auto;html=1;" edge="1" parent="1" source="tsS--CgVTpiErebc10RA-2" target="-jkqLeeG_LVBK52YAyfI-11">
          <mxGeometry relative="1" as="geometry" />
        </mxCell>
        <mxCell id="tsS--CgVTpiErebc10RA-2" value="apellido" style="whiteSpace=wrap;html=1;" parent="1" vertex="1">
          <mxGeometry x="280" y="440" width="120" height="40" as="geometry" />
        </mxCell>
        <mxCell id="-jkqLeeG_LVBK52YAyfI-14" style="edgeStyle=orthogonalEdgeStyle;rounded=0;orthogonalLoop=1;jettySize=auto;html=1;" edge="1" parent="1" source="tsS--CgVTpiErebc10RA-3" target="-jkqLeeG_LVBK52YAyfI-10">
          <mxGeometry relative="1" as="geometry" />
        </mxCell>
        <mxCell id="tsS--CgVTpiErebc10RA-3" value="nombre" style="whiteSpace=wrap;html=1;" parent="1" vertex="1">
          <mxGeometry x="120" y="440" width="120" height="40" as="geometry" />
        </mxCell>
        <mxCell id="-jkqLeeG_LVBK52YAyfI-16" style="edgeStyle=orthogonalEdgeStyle;rounded=0;orthogonalLoop=1;jettySize=auto;html=1;" edge="1" parent="1" source="tsS--CgVTpiErebc10RA-4" target="-jkqLeeG_LVBK52YAyfI-12">
          <mxGeometry relative="1" as="geometry" />
        </mxCell>
        <mxCell id="tsS--CgVTpiErebc10RA-4" value="edad" style="whiteSpace=wrap;html=1;" parent="1" vertex="1">
          <mxGeometry x="440" y="440" width="120" height="40" as="geometry" />
        </mxCell>
        <mxCell id="-jkqLeeG_LVBK52YAyfI-17" style="edgeStyle=orthogonalEdgeStyle;rounded=0;orthogonalLoop=1;jettySize=auto;html=1;" edge="1" parent="1" source="tsS--CgVTpiErebc10RA-5" target="-jkqLeeG_LVBK52YAyfI-13">
          <mxGeometry relative="1" as="geometry" />
        </mxCell>
        <mxCell id="tsS--CgVTpiErebc10RA-5" value="telefono" style="whiteSpace=wrap;html=1;" parent="1" vertex="1">
          <mxGeometry x="600" y="440" width="120" height="40" as="geometry" />
        </mxCell>
        <mxCell id="-jkqLeeG_LVBK52YAyfI-10" value="Paco" style="whiteSpace=wrap;html=1;" vertex="1" parent="1">
          <mxGeometry x="120" y="585" width="120" height="40" as="geometry" />
        </mxCell>
        <mxCell id="-jkqLeeG_LVBK52YAyfI-11" value="Jones" style="whiteSpace=wrap;html=1;" vertex="1" parent="1">
          <mxGeometry x="280" y="585" width="120" height="40" as="geometry" />
        </mxCell>
        <mxCell id="-jkqLeeG_LVBK52YAyfI-12" value="21" style="whiteSpace=wrap;html=1;" vertex="1" parent="1">
          <mxGeometry x="440" y="590" width="120" height="40" as="geometry" />
        </mxCell>
        <mxCell id="-jkqLeeG_LVBK52YAyfI-13" value="688999944" style="whiteSpace=wrap;html=1;" vertex="1" parent="1">
          <mxGeometry x="600" y="590" width="120" height="40" as="geometry" />
        </mxCell>
      </root>
    </mxGraphModel>
  </diagram>
</mxfile>
